<svg xmlns="http://www.w3.org/2000/svg" xmlns:xlink="http://www.w3.org/1999/xlink" width="200" zoomAndPan="magnify" viewBox="0 0 150 74.999997" height="100" preserveAspectRatio="xMidYMid meet" version="1.0"><defs><g/><clipPath id="eba3a6eb01"><path d="M 1.859375 15.703125 L 37.859375 15.703125 L 37.859375 59.203125 L 1.859375 59.203125 Z M 1.859375 15.703125 " clip-rule="nonzero"/></clipPath></defs><g clip-path="url(#eba3a6eb01)"><path fill="#ff3e00" d="M 35.5625 21.515625 C 31.546875 15.757812 23.609375 14.050781 17.875 17.710938 L 7.796875 24.144531 C 6.417969 25.007812 5.273438 26.117188 4.363281 27.464844 C 3.453125 28.816406 2.851562 30.292969 2.5625 31.894531 C 2.433594 32.613281 2.371094 33.335938 2.367188 34.0625 C 2.375 36.066406 2.84375 37.953125 3.777344 39.726562 C 2.90625 41.050781 2.332031 42.492188 2.046875 44.054688 C 1.757812 45.6875 1.796875 47.316406 2.164062 48.933594 C 2.53125 50.550781 3.195312 52.035156 4.160156 53.386719 C 8.179688 59.144531 16.132812 60.851562 21.847656 57.191406 L 31.914062 50.757812 C 33.292969 49.890625 34.4375 48.78125 35.34375 47.433594 C 36.253906 46.082031 36.851562 44.601562 37.136719 43 C 37.265625 42.285156 37.332031 41.5625 37.328125 40.835938 C 37.328125 38.835938 36.863281 36.953125 35.9375 35.179688 C 36.808594 33.855469 37.386719 32.414062 37.667969 30.855469 C 37.792969 30.140625 37.855469 29.421875 37.859375 28.695312 C 37.859375 26.058594 37.09375 23.667969 35.5625 21.523438 Z M 35.5625 21.515625 Z M 35.5625 21.515625 " fill-opacity="1" fill-rule="nonzero"/></g><path fill="#ffffff" d="M 16.886719 53.929688 C 16.226562 54.101562 15.554688 54.1875 14.875 54.1875 C 13.5625 54.1875 12.324219 53.882812 11.164062 53.273438 C 10.003906 52.664062 9.046875 51.816406 8.300781 50.738281 C 7.378906 49.449219 6.921875 48.007812 6.921875 46.425781 C 6.921875 45.988281 6.960938 45.554688 7.035156 45.125 C 7.09375 44.804688 7.175781 44.492188 7.277344 44.183594 L 7.464844 43.605469 L 7.980469 43.996094 C 9.183594 44.882812 10.496094 45.539062 11.925781 45.972656 L 12.296875 46.085938 L 12.261719 46.460938 C 12.261719 46.523438 12.261719 46.589844 12.261719 46.652344 C 12.261719 47.132812 12.398438 47.566406 12.675781 47.957031 C 12.898438 48.289062 13.1875 48.546875 13.535156 48.734375 C 13.886719 48.921875 14.257812 49.015625 14.65625 49.015625 C 14.863281 49.015625 15.0625 48.992188 15.261719 48.9375 C 15.480469 48.878906 15.6875 48.789062 15.882812 48.667969 L 25.949219 42.203125 C 26.253906 42.007812 26.496094 41.75 26.667969 41.429688 C 26.84375 41.113281 26.929688 40.769531 26.929688 40.40625 C 26.925781 39.925781 26.785156 39.492188 26.503906 39.105469 C 26.277344 38.78125 25.988281 38.527344 25.640625 38.34375 C 25.289062 38.160156 24.917969 38.066406 24.519531 38.070312 C 24.316406 38.066406 24.113281 38.09375 23.914062 38.144531 C 23.695312 38.203125 23.492188 38.292969 23.300781 38.417969 L 19.460938 40.871094 C 18.824219 41.277344 18.144531 41.574219 17.417969 41.773438 C 16.757812 41.941406 16.085938 42.027344 15.402344 42.027344 C 14.089844 42.027344 12.855469 41.722656 11.691406 41.117188 C 10.53125 40.507812 9.578125 39.664062 8.828125 38.582031 C 7.910156 37.292969 7.449219 35.855469 7.449219 34.269531 C 7.449219 33.835938 7.488281 33.402344 7.5625 32.972656 C 7.734375 32.007812 8.097656 31.121094 8.644531 30.308594 C 9.1875 29.496094 9.875 28.828125 10.703125 28.304688 L 20.777344 21.875 C 21.414062 21.472656 22.097656 21.171875 22.824219 20.972656 C 23.484375 20.804688 24.15625 20.71875 24.839844 20.71875 C 26.152344 20.714844 27.394531 21.019531 28.558594 21.628906 C 29.722656 22.234375 30.683594 23.082031 31.433594 24.160156 C 32.347656 25.457031 32.800781 26.894531 32.796875 28.480469 C 32.792969 28.914062 32.757812 29.351562 32.683594 29.78125 C 32.621094 30.097656 32.542969 30.414062 32.441406 30.722656 L 32.25 31.300781 L 31.734375 30.921875 C 30.535156 30.039062 29.21875 29.378906 27.792969 28.949219 L 27.417969 28.832031 L 27.453125 28.457031 C 27.453125 28.394531 27.453125 28.328125 27.453125 28.261719 C 27.453125 27.785156 27.316406 27.347656 27.039062 26.957031 C 26.8125 26.628906 26.527344 26.375 26.175781 26.195312 C 25.828125 26.011719 25.453125 25.917969 25.058594 25.917969 C 24.855469 25.921875 24.65625 25.953125 24.460938 26.011719 C 24.238281 26.066406 24.035156 26.15625 23.84375 26.28125 L 13.765625 32.710938 C 13.242188 33.042969 12.929688 33.511719 12.816406 34.121094 C 12.792969 34.246094 12.777344 34.371094 12.773438 34.496094 C 12.773438 34.972656 12.910156 35.40625 13.1875 35.796875 C 13.414062 36.121094 13.699219 36.375 14.050781 36.558594 C 14.398438 36.742188 14.773438 36.835938 15.167969 36.835938 C 15.371094 36.835938 15.574219 36.808594 15.773438 36.757812 C 15.992188 36.699219 16.199219 36.609375 16.390625 36.484375 L 20.238281 34.015625 C 20.871094 33.613281 21.554688 33.3125 22.28125 33.117188 C 22.941406 32.945312 23.613281 32.859375 24.296875 32.859375 C 25.609375 32.859375 26.84375 33.164062 28.007812 33.773438 C 29.167969 34.382812 30.125 35.226562 30.871094 36.304688 C 31.792969 37.59375 32.253906 39.03125 32.253906 40.617188 C 32.253906 41.058594 32.214844 41.496094 32.136719 41.929688 C 31.964844 42.894531 31.605469 43.78125 31.058594 44.59375 C 30.511719 45.40625 29.824219 46.074219 28.996094 46.597656 L 18.9375 53.027344 C 18.300781 53.433594 17.617188 53.734375 16.886719 53.929688 Z M 16.886719 53.929688 Z M 16.886719 53.929688 " fill-opacity="1" fill-rule="nonzero"/><g fill="#fdfdfa" fill-opacity="1"><g transform="translate(39.359192, 46.283613)"><g><path d="M 9.765625 0 L 5.84375 0 L 0.296875 -16.4375 L 3.75 -16.4375 L 7.734375 -4.1875 L 8.015625 -4.1875 L 11.953125 -16.4375 L 15.3125 -16.4375 Z M 9.765625 0 "/></g></g></g><g fill="#fdfdfa" fill-opacity="1"><g transform="translate(54.959135, 46.283613)"><g><path d="M 5.390625 -7.21875 L 5.390625 -2.71875 L 13.234375 -2.71875 L 13.234375 0 L 2.140625 0 L 2.140625 -16.4375 L 13.046875 -16.4375 L 13.046875 -13.703125 L 5.390625 -13.703125 L 5.390625 -9.859375 L 12.078125 -9.859375 L 12.078125 -7.21875 Z M 5.390625 -7.21875 "/></g></g></g><g fill="#f5d122" fill-opacity="1"><g transform="translate(69.087227, 46.283613)"><g><path d="M 5.390625 -16.4375 L 5.390625 -2.71875 L 12.765625 -2.71875 L 12.765625 0 L 2.140625 0 L 2.140625 -16.4375 Z M 5.390625 -16.4375 "/></g></g></g><g fill="#f5d122" fill-opacity="1"><g transform="translate(82.394382, 46.283613)"><g><path d="M 13.171875 -16.4375 L 13.171875 -13.703125 L 8.421875 -13.703125 L 8.421875 0 L 5.1875 0 L 5.1875 -13.703125 L 0.453125 -13.703125 L 0.453125 -16.4375 Z M 13.171875 -16.4375 "/></g></g></g><g fill="#f5d122" fill-opacity="1"><g transform="translate(96.016234, 46.283613)"><g><path d="M 5.390625 -7.21875 L 5.390625 -2.71875 L 13.234375 -2.71875 L 13.234375 0 L 2.140625 0 L 2.140625 -16.4375 L 13.046875 -16.4375 L 13.046875 -13.703125 L 5.390625 -13.703125 L 5.390625 -9.859375 L 12.078125 -9.859375 L 12.078125 -7.21875 Z M 5.390625 -7.21875 "/></g></g></g><g fill="#d9d9d9" fill-opacity="1"><g transform="translate(110.147698, 46.283613)"><g/></g></g><g fill="#ce2029" fill-opacity="1"><g transform="translate(115.578639, 46.283613)"><g><path d="M 8.484375 -16.4375 C 9.660156 -16.4375 10.664062 -16.21875 11.5 -15.78125 C 12.332031 -15.351562 12.960938 -14.75 13.390625 -13.96875 C 13.816406 -13.195312 14.03125 -12.296875 14.03125 -11.265625 C 14.03125 -10.242188 13.816406 -9.347656 13.390625 -8.578125 C 12.960938 -7.804688 12.332031 -7.203125 11.5 -6.765625 C 10.664062 -6.335938 9.660156 -6.125 8.484375 -6.125 L 5.390625 -6.125 L 5.390625 0 L 2.140625 0 L 2.140625 -16.4375 Z M 8.0625 -8.703125 C 9.863281 -8.703125 10.765625 -9.554688 10.765625 -11.265625 C 10.765625 -12.992188 9.863281 -13.859375 8.0625 -13.859375 L 5.390625 -13.859375 L 5.390625 -8.703125 Z M 8.0625 -8.703125 "/></g></g></g><g fill="#20419a" fill-opacity="1"><g transform="translate(130.597056, 46.283613)"><g><path d="M 12.75 -10.25 L 12.75 -16.4375 L 15.984375 -16.4375 L 15.984375 0 L 12.75 0 L 12.75 -7.484375 L 5.390625 -7.484375 L 5.390625 0 L 2.140625 0 L 2.140625 -16.4375 L 5.390625 -16.4375 L 5.390625 -10.25 Z M 12.75 -10.25 "/></g></g></g></svg>